<svg xmlns="http://www.w3.org/2000/svg" viewBox="0 0 64 96">
  <defs>
    <linearGradient id="body" x1="0" y1="0" x2="0" y2="1">
      <stop offset="0" stop-color="#ffffff"/>
      <stop offset="1" stop-color="#dbe3ea"/>
    </linearGradient>
    <linearGradient id="glass" x1="0" y1="0" x2="0" y2="1">
      <stop offset="0" stop-color="#1f2937"/>
      <stop offset="1" stop-color="#64748b"/>
    </linearGradient>
    <filter id="shadow" x="-40%" y="-30%" width="180%" height="180%">
      <feDropShadow dx="0" dy="4" stdDeviation="3" flood-color="#020617" flood-opacity=".48"/>
    </filter>
  </defs>
  <g filter="url(#shadow)">
    <path d="M18 14C20 7 25 3 32 3s12 4 14 11l7 24v43c0 6-5 11-11 11H22c-6 0-11-5-11-11V38l7-24z" fill="url(#body)" stroke="#111827" stroke-width="2"/>
    <path d="M21 17c2-5 5-7 11-7s9 2 11 7l4 15H17l4-15z" fill="url(#glass)"/>
    <path d="M17 39h30v25H17z" fill="#f8fafc"/>
    <path d="M19 41h26l-3 19H22l-3-19z" fill="url(#glass)"/>
    <path d="M17 67h30l2 14c1 4-3 6-7 6H22c-4 0-8-2-7-6l2-14z" fill="#eef2f6"/>
    <path d="M14 70h5v12h-5zM45 70h5v12h-5z" fill="#111827"/>
    <path d="M19 82h8v4h-8zM37 82h8v4h-8z" rx="2" fill="#ef4444"/>
    <path d="M19 34h7v4h-7zM38 34h7v4h-7z" rx="2" fill="#f8fafc" stroke="#cbd5e1"/>
    <path d="M10 43h5v15h-3c-2 0-3-2-3-4v-8c0-2 0-3 1-3zM49 43h5c1 0 1 1 1 3v8c0 2-1 4-3 4h-3V43z" fill="#e2e8f0" stroke="#111827" stroke-width="1.5"/>
  </g>
</svg>
